<?xml version="1.0" standalone="no"?>
<!DOCTYPE svg PUBLIC "-//W3C//DTD SVG 20010904//EN"
 "http://www.w3.org/TR/2001/REC-SVG-20010904/DTD/svg10.dtd">
<svg version="1.0" xmlns="http://www.w3.org/2000/svg"
 width="1062.000000pt" height="1041.000000pt" viewBox="0 0 1062.000000 1041.000000"
 preserveAspectRatio="xMidYMid meet">

<g transform="translate(0.000000,1041.000000) scale(0.100000,-0.100000)"
fill="#325335" stroke="none">
<path d="M5710 10395 c-342 -69 -1167 -301 -1730 -487 -1043 -344 -1901 -719
-2789 -1219 -127 -72 -129 -74 -179 -224 -41 -122 -60 -257 -66 -463 l-6 -172
78 -60 c42 -33 223 -171 402 -307 523 -396 1426 -1091 1474 -1134 13 -12 -45
-76 -204 -221 -387 -353 -576 -517 -980 -848 -303 -249 -467 -371 -639 -475
-228 -137 -308 -161 -510 -153 -188 8 -272 52 -331 171 -99 205 -91 396 40
928 38 155 85 407 77 415 -7 7 -174 -346 -223 -472 -91 -234 -132 -457 -120
-664 8 -157 28 -239 80 -345 88 -175 231 -309 453 -422 92 -47 113 -62 113
-80 0 -12 -24 -82 -54 -155 -204 -507 -267 -875 -196 -1153 43 -173 166 -362
318 -490 138 -116 237 -149 426 -143 147 5 166 13 336 148 161 127 200 154
211 143 5 -5 16 -110 24 -233 25 -356 63 -535 155 -727 64 -135 135 -236 227
-323 172 -164 388 -261 648 -290 117 -13 427 -13 580 1 112 9 360 44 396 54
13 4 17 -12 27 -92 14 -118 49 -259 91 -370 88 -227 288 -425 506 -499 69 -23
96 -27 195 -27 136 0 192 17 303 90 104 68 383 352 647 658 236 274 503 553
632 661 42 35 116 91 165 125 l88 60 6 -403 c6 -389 13 -509 29 -491 26 27
122 381 140 513 6 47 17 182 23 300 l12 214 58 39 c98 65 366 216 487 274 165
80 451 169 767 238 25 6 21 12 152 -190 125 -191 242 -299 376 -345 114 -40
326 -44 481 -10 271 59 478 207 588 418 73 142 113 307 135 552 22 234 34 106
-178 1870 -271 2250 -310 2601 -366 3264 -23 272 -33 437 -28 449 9 19 13 16
65 -31 64 -57 105 -83 95 -61 -3 8 -44 102 -92 209 -103 230 -238 557 -285
688 -18 51 -35 91 -37 88 -2 -2 -30 -62 -62 -134 l-58 -130 28 -244 c15 -134
134 -1082 263 -2108 374 -2960 398 -3163 461 -3890 23 -265 26 -246 -42 -277
-93 -41 -310 -109 -419 -132 -166 -34 -328 -46 -446 -33 -170 18 -261 62 -329
155 l-29 40 78 81 c112 116 163 180 226 280 91 144 158 347 171 517 24 292
-116 659 -306 804 l-52 40 -108 3 c-153 6 -192 -9 -289 -107 -60 -60 -85 -96
-122 -171 -72 -146 -89 -224 -95 -430 -6 -211 21 -431 92 -756 6 -28 -8 -33
-228 -94 -317 -88 -550 -174 -850 -314 l-79 -36 9 362 c10 470 7 663 -17 1053
-11 175 -20 329 -20 341 0 19 7 22 68 27 140 12 401 141 565 281 108 92 197
246 244 424 22 82 26 119 26 237 0 157 -16 288 -223 1828 -185 1383 -262 2024
-300 2501 -16 200 -29 186 110 116 66 -33 120 -58 120 -56 0 23 -411 852 -461
931 l-32 50 -13 -30 c-34 -78 -96 -284 -95 -315 0 -19 24 -177 51 -350 76
-476 95 -609 306 -2185 258 -1933 298 -2251 329 -2629 l7 -78 -64 -62 c-139
-134 -369 -230 -549 -230 -99 0 -132 15 -154 68 -8 18 -28 156 -45 307 -17
151 -60 506 -96 789 -145 1146 -174 1375 -198 1590 -35 303 -41 400 -29 400 6
0 38 -20 71 -44 33 -24 74 -52 91 -61 l32 -16 -14 33 c-22 50 -429 953 -431
955 -1 1 -27 -44 -59 -101 l-57 -103 25 -254 c38 -378 66 -614 175 -1484 121
-960 150 -1211 190 -1605 41 -416 40 -374 8 -378 -75 -9 -304 154 -643 458
-274 245 -830 716 -1295 1097 -102 83 -203 170 -224 192 l-40 41 47 20 c26 12
88 30 139 42 125 29 382 32 508 5 224 -47 395 -126 582 -268 51 -38 97 -69
105 -69 22 0 33 37 44 148 13 126 0 265 -28 318 -10 19 -57 62 -110 101 -267
198 -408 360 -528 608 -118 244 -217 622 -241 917 -8 107 -2 112 92 78 36 -12
67 -20 70 -17 7 7 -39 111 -169 382 -142 295 -164 335 -188 335 -26 0 -43 -30
-78 -135 -42 -127 -55 -233 -48 -394 10 -243 63 -491 237 -1121 78 -284 108
-415 97 -427 -5 -4 -84 -11 -178 -15 -264 -11 -403 -40 -682 -140 -168 -61
-169 -61 -200 -44 -18 9 -140 92 -272 184 -132 92 -478 334 -770 536 -829 577
-1207 843 -1245 875 -31 26 -33 31 -20 45 52 53 760 414 1080 550 403 172
1023 401 1780 657 289 97 624 211 745 253 376 129 650 184 1013 201 l133 7 46
-38 c84 -69 116 -188 74 -279 -30 -66 -114 -170 -368 -451 -402 -447 -459
-522 -553 -716 -43 -89 -86 -215 -77 -224 2 -2 64 67 139 154 75 86 207 236
293 332 494 547 712 880 780 1184 23 103 17 234 -12 292 -44 83 -131 145 -233
164 -70 13 -190 11 -270 -5z m-2437 -4401 c46 -24 349 -280 524 -442 158 -148
330 -334 426 -460 114 -152 250 -398 279 -506 l12 -46 -54 -56 c-139 -142
-290 -208 -670 -294 -226 -50 -340 -83 -434 -122 -39 -17 -165 -67 -281 -113
-497 -196 -743 -316 -965 -473 -87 -62 -245 -216 -461 -452 -249 -272 -384
-387 -557 -472 -94 -47 -157 -57 -247 -38 -53 11 -66 19 -125 79 -76 75 -127
160 -166 276 -22 66 -28 103 -32 210 -5 150 7 258 48 430 40 169 101 337 180
501 l68 141 194 96 c217 108 347 187 511 311 158 118 244 194 647 566 444 410
552 506 715 637 124 100 328 243 347 243 5 0 23 -7 41 -16z m908 -295 c297
-205 516 -394 1169 -1010 379 -357 595 -518 839 -623 80 -35 111 -54 120 -72
17 -38 40 -248 51 -469 5 -110 12 -470 16 -801 l7 -601 -88 -58 c-151 -100
-284 -212 -456 -384 -191 -192 -271 -285 -472 -553 -218 -291 -316 -396 -494
-531 -163 -124 -300 -190 -449 -215 -83 -15 -96 -14 -160 1 -166 41 -238 147
-319 469 -20 81 -35 157 -33 168 2 17 31 33 144 79 495 203 824 402 1308 793
305 247 427 405 502 653 24 78 27 108 28 225 0 199 -34 313 -197 657 -129 269
-166 372 -147 403 7 12 20 10 75 -13 67 -28 129 -35 140 -16 8 13 -31 64 -188
244 -181 207 -326 355 -343 348 -30 -11 -85 -160 -109 -294 -12 -65 14 -130
260 -654 217 -462 335 -744 335 -803 0 -38 -52 -96 -181 -203 -339 -281 -789
-513 -1393 -718 -99 -34 -183 -60 -187 -59 -5 2 17 75 47 163 100 289 153 450
168 514 8 35 13 61 12 60 -4 -5 -140 -267 -256 -494 -47 -93 -100 -204 -117
-245 l-31 -75 -129 -37 c-385 -113 -660 -140 -910 -93 -94 18 -290 84 -384
129 -210 100 -351 242 -426 426 -56 139 -100 415 -90 567 4 65 10 92 31 127
38 65 174 205 290 299 279 224 528 342 1231 580 449 152 580 204 760 304 259
144 395 279 445 442 46 147 43 408 -5 577 -57 196 -206 456 -382 664 -89 106
-133 163 -133 174 0 16 33 1 101 -45z m3964 -2074 c182 -48 313 -227 317 -434
2 -65 -1 -74 -29 -108 -53 -66 -192 -170 -299 -224 -123 -63 -118 -64 -180 66
-83 177 -124 338 -124 485 0 112 14 174 45 194 57 37 172 46 270 21z"/>
<path d="M2752 5043 c-44 -70 -112 -193 -128 -232 -18 -43 -12 -53 95 -160 91
-91 174 -156 219 -172 44 -15 66 1 144 103 69 91 104 128 123 128 7 0 70 -50
141 -111 71 -61 146 -122 166 -136 l37 -25 33 19 c39 22 123 131 167 215 23
46 28 64 21 79 -16 28 -270 279 -312 306 -56 38 -75 29 -145 -67 -35 -47 -79
-104 -99 -127 -43 -52 -33 -56 -197 76 -147 118 -194 151 -217 151 -10 0 -31
-20 -48 -47z"/>
<path d="M3897 3159 c-43 -35 -115 -133 -148 -201 l-22 -46 36 -50 c51 -68
235 -244 279 -265 65 -31 78 -25 145 66 80 108 123 177 123 197 0 42 -316 330
-361 330 -8 0 -31 -14 -52 -31z"/>
<path d="M7706 9846 c-36 -85 -66 -167 -66 -183 0 -32 8 -81 84 -563 102 -640
160 -1067 281 -2075 86 -713 130 -1046 179 -1350 19 -115 37 -245 40 -289 4
-72 17 -109 31 -94 25 25 84 268 106 433 15 119 15 508 0 665 -7 69 -86 698
-177 1399 -91 701 -163 1278 -162 1282 2 4 35 -12 73 -37 39 -25 83 -52 98
-60 l28 -15 -14 33 c-49 115 -430 1004 -432 1006 -1 1 -32 -67 -69 -152z"/>
<path d="M7371 8552 c-18 -33 -50 -177 -62 -275 -29 -238 56 -436 187 -437 39
0 97 60 113 117 15 51 14 115 -1 136 -15 19 -26 14 -57 -30 -16 -24 -30 -33
-50 -33 -35 0 -52 19 -88 95 -28 59 -28 62 -28 253 1 105 0 192 -2 192 -1 0
-7 -8 -12 -18z"/>
<path d="M3403 8428 c-35 -44 -66 -212 -66 -353 -1 -123 23 -221 68 -287 35
-51 66 -58 110 -24 54 42 90 111 90 175 0 66 -15 75 -52 32 -36 -41 -65 -39
-114 7 -54 50 -62 90 -44 212 17 120 29 250 23 250 -3 0 -10 -6 -15 -12z"/>
<path d="M9681 7934 c-24 -108 -43 -206 -44 -218 0 -11 14 -104 31 -206 28
-166 133 -900 271 -1895 115 -822 121 -881 186 -1760 48 -647 52 -695 66 -695
5 0 15 10 23 23 21 33 83 193 101 262 51 193 37 898 -30 1500 -23 202 -78 604
-130 953 -52 347 -175 1309 -175 1366 0 3 61 -31 135 -74 74 -43 135 -76 135
-74 0 22 -494 981 -519 1007 -4 4 -27 -81 -50 -189z"/>
<path d="M858 7614 c-116 -118 -167 -182 -284 -356 -129 -192 -180 -321 -204
-516 -20 -173 30 -423 97 -482 67 -59 154 -29 272 95 155 164 302 445 232 445
-11 0 -55 -33 -98 -73 -86 -81 -110 -97 -146 -97 -57 0 -98 99 -105 255 -8
197 46 333 270 684 43 68 78 131 76 139 -2 10 -41 -24 -110 -94z"/>
<path d="M1726 6803 c-23 -47 -74 -215 -97 -324 -15 -72 -22 -142 -23 -229 -1
-118 1 -128 27 -182 33 -66 76 -98 133 -98 75 0 139 68 151 160 6 46 -10 55
-68 35 -53 -19 -77 -6 -108 58 -47 97 -48 179 -5 387 35 170 30 270 -10 193z"/>
<path d="M10416 6208 c-49 -170 -71 -350 -63 -521 4 -101 9 -126 32 -173 61
-126 176 -145 221 -37 17 39 18 107 3 135 -11 20 -12 19 -44 -12 l-32 -31 -32
38 c-74 90 -93 212 -67 442 18 166 20 211 6 211 -5 0 -16 -24 -24 -52z"/>
<path d="M5569 5980 c-55 -29 -143 -114 -169 -163 l-23 -44 24 -48 c27 -56
119 -155 143 -155 22 0 20 -13 -3 -27 -30 -19 -191 -164 -191 -173 0 -4 13
-13 29 -20 27 -11 36 -8 108 31 116 63 278 166 361 227 70 53 72 56 72 98 0
23 -4 45 -8 48 -5 3 -40 -6 -78 -19 -162 -57 -255 -55 -316 5 -46 46 -31 93
42 130 54 28 98 26 109 -2 9 -23 9 -22 21 7 13 33 8 89 -11 111 -16 20 -67 17
-110 -6z"/>
<path d="M7873 5218 c-44 -48 -163 -253 -163 -282 0 -34 236 -254 324 -301
l35 -19 32 29 c17 17 62 69 101 118 80 99 101 116 126 94 9 -7 67 -57 129
-110 150 -129 183 -150 215 -138 36 13 102 92 163 195 l54 90 -89 95 c-147
160 -253 251 -289 251 -21 0 -61 -42 -133 -140 -30 -41 -66 -85 -80 -98 l-25
-22 -39 26 c-21 14 -79 59 -129 99 -95 77 -181 135 -200 135 -6 0 -21 -10 -32
-22z"/>
<path d="M7690 1542 c-73 -36 -111 -144 -136 -392 -9 -85 -19 -164 -24 -175
-6 -17 -18 -3 -75 85 -37 58 -79 123 -93 145 -15 22 -58 72 -97 111 -69 69
-128 106 -193 119 -31 6 -33 5 -53 -41 -31 -68 -23 -166 18 -232 26 -43 35
-49 103 -72 105 -36 137 -55 196 -116 39 -40 68 -86 115 -184 35 -71 69 -130
77 -130 40 0 80 198 88 435 6 206 11 242 35 266 28 28 62 23 114 -17 26 -19
58 -40 72 -47 23 -10 28 -8 54 21 33 36 37 77 15 121 -22 42 -90 98 -133 110
-48 14 -42 14 -83 -7z"/>
<path d="M3256 832 c-8 -15 -24 -74 -36 -131 -30 -141 -26 -296 11 -367 30
-58 63 -84 118 -91 39 -5 44 -3 85 39 44 46 76 118 76 169 0 41 -15 43 -53 9
-43 -37 -75 -38 -110 -2 -48 51 -57 88 -57 252 0 153 -6 175 -34 122z"/>
</g>
</svg>
