<?xml version="1.0" standalone="no"?>
<!DOCTYPE svg PUBLIC "-//W3C//DTD SVG 20010904//EN"
 "http://www.w3.org/TR/2001/REC-SVG-20010904/DTD/svg10.dtd">
<svg version="1.0" xmlns="http://www.w3.org/2000/svg"
 width="638.000000pt" height="266.000000pt" viewBox="0 0 638.000000 266.000000"
 preserveAspectRatio="xMidYMid meet">

<g transform="translate(0.000000,266.000000) scale(0.100000,-0.100000)"
fill="#325335" stroke="none">
<path d="M3616 2398 c-22 -31 -20 -57 6 -85 l22 -23 -55 -54 c-31 -29 -90 -76
-132 -105 -42 -28 -77 -54 -77 -57 0 -9 85 39 145 82 33 23 75 61 94 84 25 32
37 39 53 34 18 -5 20 -3 13 12 -4 11 -10 44 -14 74 -7 62 -28 77 -55 38z"/>
<path d="M4360 2366 c-309 -114 -806 -308 -836 -327 -35 -21 -59 -47 -52 -54
2 -2 135 51 295 119 307 131 544 222 655 251 40 11 76 27 89 41 32 34 15 31
-151 -30z"/>
<path d="M3916 2370 c-9 -22 -16 -47 -16 -55 0 -22 21 -29 38 -11 15 15 15 16
-1 16 -20 0 -23 31 -6 62 6 11 9 22 6 24 -2 3 -12 -13 -21 -36z"/>
<path d="M1505 2370 c-12 -55 -7 -113 29 -316 20 -111 36 -208 36 -216 0 -21
-131 116 -209 217 l-61 80 25 9 c14 6 25 13 25 17 0 12 -190 169 -205 169 -4
0 -5 -27 -3 -59 4 -58 6 -61 150 -253 80 -106 173 -224 208 -263 34 -38 70
-86 80 -105 18 -35 33 -132 70 -469 39 -344 71 -433 161 -447 48 -7 98 23 127
77 21 39 23 53 19 129 -5 87 -27 160 -59 202 -15 20 -19 21 -28 8 -22 -33 -11
-105 26 -175 l36 -68 -20 -20 c-13 -12 -39 -22 -71 -25 -48 -4 -51 -3 -71 29
-46 76 -74 219 -90 472 -6 99 -10 180 -8 182 6 6 198 -183 292 -287 164 -180
239 -289 281 -405 34 -92 45 -100 45 -32 0 92 -46 216 -123 329 -58 86 -196
246 -337 390 -78 80 -152 163 -166 185 -19 34 -28 77 -49 250 -29 230 -46 321
-71 384 -19 49 -30 52 -39 11z"/>
<path d="M2131 2363 c-16 -55 -14 -89 14 -252 13 -80 42 -270 65 -421 22 -151
56 -374 74 -495 19 -121 37 -243 40 -271 7 -75 -10 -177 -40 -235 -46 -92
-160 -196 -304 -279 -97 -56 -163 -101 -157 -107 11 -11 167 40 253 83 113 55
173 112 218 208 52 107 67 176 73 327 6 153 -2 243 -53 564 -92 580 -103 659
-99 663 3 3 14 -3 25 -13 19 -18 20 -17 20 3 0 47 -90 262 -110 262 -5 0 -14
-17 -19 -37z"/>
<path d="M2496 2360 c-22 -55 -20 -112 8 -281 14 -79 36 -236 50 -349 74 -591
86 -720 96 -961 5 -138 12 -254 14 -257 11 -11 37 72 47 151 18 139 -2 446
-57 872 -13 105 -31 255 -39 335 -9 80 -20 171 -26 204 -6 32 -8 60 -6 62 2 2
16 -5 31 -17 l27 -21 -7 28 c-20 82 -100 274 -114 274 -4 0 -15 -18 -24 -40z"/>
<path d="M3255 2361 c-55 -21 -170 -68 -255 -106 -85 -37 -178 -76 -206 -86
-47 -18 -93 -53 -83 -63 2 -2 38 12 79 31 41 20 179 75 305 124 254 98 277
108 283 127 6 19 -15 14 -123 -27z"/>
<path d="M4626 2360 c-15 -37 -14 -52 9 -237 14 -109 25 -215 25 -235 0 -35
-18 -56 -311 -368 -172 -181 -315 -330 -319 -330 -7 0 -185 180 -312 315 -174
186 -219 238 -273 316 -56 82 -57 88 -20 103 12 4 -51 72 -130 139 l-60 50 -8
-60 -7 -60 40 -44 c22 -24 100 -131 172 -237 113 -167 154 -218 296 -365 90
-95 177 -189 192 -210 l28 -37 -33 -68 c-19 -37 -50 -121 -71 -187 -32 -104
-37 -137 -42 -248 -4 -107 -7 -130 -21 -134 -50 -18 -123 -54 -119 -58 2 -3
41 2 86 11 l81 17 48 -50 c73 -74 109 -88 228 -87 110 1 195 24 325 89 l66 33
24 -36 c36 -52 75 -72 142 -72 101 0 189 42 331 158 86 70 147 155 183 256 30
86 42 97 144 137 30 12 100 41 155 64 121 51 221 75 312 75 l68 0 19 42 c10
24 20 48 23 54 3 7 -29 13 -94 18 -141 10 -261 32 -398 73 -136 41 -281 55
-336 33 -54 -23 -79 -103 -36 -119 45 -17 145 -23 183 -11 32 11 50 9 141 -15
76 -21 103 -32 101 -42 -2 -9 -57 -35 -133 -64 l-130 -49 -19 28 c-11 15 -37
44 -58 64 -64 63 -113 63 -173 1 -58 -60 -70 -155 -26 -213 18 -24 22 -25 125
-23 58 0 106 -1 106 -3 0 -22 -51 -93 -102 -145 -117 -117 -269 -199 -369
-199 -50 0 -113 23 -107 40 2 4 44 44 95 89 104 92 137 146 155 255 14 82 4
224 -48 698 -30 270 -35 342 -26 360 7 13 44 61 83 108 118 142 204 287 197
332 -2 19 -14 9 -69 -62 -37 -47 -98 -130 -137 -185 -39 -55 -77 -109 -85
-119 -12 -18 -15 -8 -27 92 -7 62 -10 115 -6 119 3 3 15 -2 26 -12 11 -10 22
-16 25 -14 6 6 -98 269 -106 269 -4 0 -14 -18 -23 -40z m57 -677 c4 -49 27
-249 52 -446 25 -197 45 -381 45 -410 0 -50 -2 -53 -63 -112 -70 -67 -183
-155 -199 -155 -7 0 -9 30 -5 86 4 77 10 95 53 182 48 95 49 99 48 187 0 77
-4 99 -29 153 -15 34 -43 76 -62 92 -65 58 -152 29 -194 -65 -23 -50 -25 -128
-4 -149 20 -19 78 -36 130 -36 41 0 125 -32 125 -47 0 -40 -116 -144 -259
-233 -93 -58 -415 -220 -437 -220 -31 0 -54 61 -53 140 1 41 4 88 8 103 l6 29
23 -31 c28 -39 66 -41 138 -7 115 53 158 197 99 324 -14 30 -25 58 -25 64 0 5
44 55 98 111 54 56 151 163 216 237 126 143 266 290 277 290 3 0 9 -39 12 -87z
m-216 -525 c32 -30 29 -38 -14 -32 -81 11 -84 13 -73 34 14 27 58 26 87 -2z
m-390 -201 c8 -16 12 -34 10 -41 -9 -24 -100 -76 -132 -76 -76 0 -73 54 10
168 l30 41 33 -32 c19 -18 40 -45 49 -60z m981 -44 l27 -28 -39 -3 c-55 -5
-86 5 -86 27 0 25 9 31 42 31 18 0 39 -10 56 -27z m-564 -195 c-3 -18 -11 -69
-17 -113 -12 -76 -14 -80 -51 -106 -101 -68 -313 -108 -421 -78 -76 21 -73 30
16 56 119 34 209 82 344 183 66 50 123 90 127 90 4 0 4 -15 2 -32z"/>
<path d="M4565 1500 c-16 -31 -21 -90 -7 -90 5 0 17 10 28 22 17 19 17 21 2
15 -26 -9 -30 8 -14 48 18 43 12 46 -9 5z"/>
<path d="M4244 894 c-21 -51 -6 -92 24 -62 15 15 16 32 2 23 -16 -10 -22 19
-11 48 16 40 2 32 -15 -9z"/>
<path d="M5365 2359 c-24 -45 -16 -73 20 -77 19 -3 33 2 42 14 18 25 17 29
-17 64 l-29 30 -16 -31z m55 -38 c0 -5 -7 -14 -16 -21 -12 -11 -18 -10 -31 3
-23 22 0 52 28 36 10 -5 19 -13 19 -18z"/>
<path d="M1893 2301 c-143 -72 -261 -146 -250 -157 7 -8 53 15 245 119 162 89
204 117 173 117 -6 0 -81 -36 -168 -79z"/>
<path d="M2732 2353 c-28 -54 -19 -110 12 -84 20 17 20 31 1 31 -17 0 -20 23
-5 51 6 10 8 19 6 19 -3 0 -9 -8 -14 -17z"/>
<path d="M5920 2353 c-57 -20 -379 -157 -445 -190 -54 -27 -119 -73 -112 -79
4 -4 75 26 317 133 74 33 166 72 203 88 38 16 73 37 78 47 5 10 8 18 7 18 -2
-1 -23 -8 -48 -17z"/>
<path d="M276 2313 c-9 -18 -16 -49 -16 -69 0 -28 5 -36 26 -45 20 -7 32 -6
50 5 41 27 40 52 -4 100 l-40 43 -16 -34z m54 -48 c10 -12 10 -18 0 -30 -7 -8
-18 -15 -25 -15 -19 0 -38 28 -31 45 7 19 40 19 56 0z"/>
<path d="M6008 2313 c-20 -58 -14 -227 15 -423 41 -271 97 -793 97 -900 0 -57
-6 -117 -15 -147 -32 -108 -167 -246 -375 -385 -58 -39 -106 -77 -108 -84 -3
-10 28 -3 105 24 202 72 254 108 327 224 129 204 146 455 71 1053 -31 244 -42
415 -27 415 6 0 14 -4 17 -10 15 -24 22 -7 14 33 -14 79 -80 237 -98 237 -5 0
-15 -17 -23 -37z"/>
<path d="M893 2292 c-25 -46 -36 -88 -28 -113 9 -26 30 -24 49 6 16 24 15 25
-3 25 -28 0 -31 22 -10 70 24 54 19 62 -8 12z"/>
<path d="M600 2292 c0 -11 9 -27 21 -38 34 -31 58 -89 68 -161 l8 -68 2 66 c1
75 -16 133 -55 184 -29 39 -44 44 -44 17z"/>
<path d="M5066 2278 c-13 -50 -6 -82 24 -113 16 -17 67 -87 112 -157 56 -85
174 -232 363 -453 154 -180 304 -361 333 -403 75 -107 132 -224 144 -294 14
-81 33 -61 33 35 0 64 -5 82 -43 161 -94 196 -244 394 -622 816 -92 103 -180
221 -180 240 0 5 11 11 25 14 14 4 25 10 25 14 -1 7 -183 155 -199 160 -5 2
-11 -7 -15 -20z"/>
<path d="M4408 2123 c-9 -10 -22 -40 -29 -67 -11 -45 -13 -47 -21 -25 -22 59
-80 89 -93 48 -9 -27 2 -37 45 -41 32 -3 35 -6 40 -41 3 -21 10 -39 15 -40 12
-2 34 57 34 96 1 20 8 30 27 37 16 6 24 16 22 27 -4 24 -22 26 -40 6z"/>
<path d="M1881 2090 c-35 -76 -24 -110 34 -110 38 0 55 16 55 51 0 18 -9 35
-27 49 -16 12 -31 29 -34 38 -5 13 -12 6 -28 -28z m47 -32 c29 -29 -3 -73 -34
-47 -17 14 -18 46 -1 52 19 8 22 8 35 -5z"/>
<path d="M5772 2053 c-6 -10 -15 -38 -22 -63 l-12 -45 -15 30 c-26 52 -74 74
-87 40 -10 -27 5 -44 42 -47 35 -3 37 -6 42 -41 7 -56 23 -47 41 24 12 47 21
64 38 71 14 5 21 15 19 25 -5 24 -35 28 -46 6z"/>
<path d="M3970 2038 c0 -14 11 -35 26 -49 39 -36 54 -73 61 -147 6 -56 8 -62
13 -35 15 71 -20 182 -74 232 l-26 24 0 -25z"/>
<path d="M372 2027 c-7 -8 -20 -40 -30 -73 -18 -59 -19 -59 -26 -27 -13 58
-87 96 -101 53 -9 -29 10 -48 53 -52 35 -3 37 -5 43 -45 3 -24 8 -46 12 -49 9
-9 33 51 42 104 5 33 13 45 32 53 15 6 23 15 21 26 -4 22 -31 28 -46 10z"/>
<path d="M795 1900 c-165 -76 -370 -171 -456 -210 -179 -82 -215 -106 -205
-137 7 -22 45 -43 78 -43 20 0 20 1 -3 18 -33 28 -19 49 58 84 37 17 151 70
253 118 102 49 271 129 375 179 105 50 196 99 204 111 7 11 10 20 5 19 -5 0
-144 -63 -309 -139z"/>
<path d="M2407 2012 c-25 -28 -57 -104 -57 -139 0 -67 24 -82 59 -37 27 34 26
41 -1 40 -33 -1 -35 41 -3 103 27 54 28 62 2 33z"/>
<path d="M2923 1932 c-124 -54 -223 -102 -223 -109 0 -18 8 -17 77 12 174 70
415 194 378 194 -5 0 -110 -44 -232 -97z"/>
<path d="M3729 1844 c-11 -25 -19 -55 -17 -67 4 -29 48 -45 83 -29 39 18 34
65 -11 107 l-36 34 -19 -45z m56 -30 c15 -16 15 -18 -4 -37 -17 -17 -22 -18
-35 -7 -16 13 -21 42 -9 53 11 12 31 8 48 -9z"/>
<path d="M4971 1839 c-29 -67 -19 -99 32 -99 18 0 38 5 45 12 20 20 14 65 -11
85 -13 10 -28 26 -34 36 -8 16 -13 12 -32 -34z m63 -34 c7 -20 -19 -49 -38
-42 -22 9 -31 34 -17 51 13 16 47 10 55 -9z"/>
<path d="M1980 1842 c0 -5 7 -29 15 -52 20 -56 19 -63 -5 -50 -10 6 -24 28
-30 50 -17 62 -33 61 -26 -1 7 -59 -2 -83 -27 -73 -11 4 -17 18 -17 38 0 17
-5 38 -11 46 -8 11 -9 0 -6 -43 2 -33 10 -64 19 -73 13 -13 17 -12 40 6 19 14
34 18 56 14 16 -3 32 -2 35 4 9 14 -18 135 -31 140 -7 2 -12 -1 -12 -6z"/>
<path d="M5878 1773 c-51 -58 -76 -175 -44 -202 11 -9 20 -5 41 21 l28 33 -26
3 c-23 3 -27 8 -27 33 0 16 11 52 25 79 27 53 28 61 3 33z"/>
<path d="M2990 1710 c-26 -55 -27 -56 -55 -37 -11 8 -32 22 -47 31 l-26 17
-32 -46 c-36 -52 -35 -54 33 -103 l45 -32 11 28 c7 15 20 38 30 51 l18 24 39
-27 c54 -37 69 -34 95 21 l22 46 -26 21 c-15 12 -40 29 -55 38 l-29 17 -23
-49z"/>
<path d="M3255 1706 c-17 -44 -15 -76 4 -76 6 0 15 9 21 20 9 16 8 20 -5 20
-18 0 -20 23 -4 52 6 11 8 22 6 24 -3 3 -13 -15 -22 -40z"/>
<path d="M1286 1718 c-8 -13 -20 -44 -27 -70 -6 -26 -15 -45 -20 -42 -5 3 -9
-11 -9 -30 0 -70 32 -49 45 29 11 66 16 76 41 85 27 11 32 35 8 44 -22 8 -22
8 -38 -16z"/>
<path d="M4330 1725 c-60 -16 -98 -31 -265 -102 -77 -33 -154 -65 -172 -72
-33 -14 -60 -38 -51 -47 8 -7 510 194 527 211 22 21 11 24 -39 10z"/>
<path d="M920 1693 c0 -11 7 -41 16 -67 9 -26 14 -50 10 -53 -12 -13 -47 32
-58 74 -18 73 -44 68 -27 -5 12 -54 3 -92 -22 -92 -23 0 -39 29 -39 74 0 19
-4 38 -10 41 -13 8 -13 -69 1 -118 13 -50 33 -56 68 -23 24 23 31 25 56 16 16
-6 35 -8 43 -5 15 5 15 6 -6 129 -7 41 -32 63 -32 29z"/>
<path d="M1142 1688 c-16 -16 -15 -48 1 -52 6 -3 29 -7 50 -10 47 -6 49 12 6
48 -35 29 -40 31 -57 14z"/>
<path d="M5395 1633 c-86 -21 -525 -208 -525 -224 0 -5 3 -9 7 -9 9 0 475 185
510 202 12 6 24 17 27 24 3 8 4 13 3 13 -1 -1 -11 -4 -22 -6z"/>
<path d="M575 1550 c-29 -58 -34 -120 -9 -120 9 0 23 8 30 18 18 23 17 33 -1
26 -26 -10 -29 26 -7 77 26 63 19 63 -13 -1z"/>
<path d="M2085 1498 c-14 -29 -25 -66 -25 -81 0 -34 26 -46 45 -21 19 25 19
34 0 34 -25 0 -27 24 -6 73 28 64 16 60 -14 -5z"/>
<path d="M3415 1494 c-8 -20 -15 -40 -15 -45 0 -16 -25 -10 -62 16 -20 14 -41
25 -45 25 -7 0 -53 -82 -53 -94 0 -6 101 -69 104 -65 2 2 15 23 30 47 14 23
30 42 34 42 4 0 25 -14 46 -30 30 -23 42 -27 52 -19 16 13 36 78 28 91 -8 13
-85 68 -95 68 -5 0 -16 -16 -24 -36z"/>
<path d="M4035 1450 c-17 -32 -20 -76 -6 -84 4 -3 16 3 26 14 16 18 16 20 2
20 -19 0 -23 31 -7 61 6 10 8 19 6 19 -3 0 -12 -13 -21 -30z"/>
<path d="M3125 1365 c-22 -43 -58 -98 -80 -123 l-41 -45 -32 41 c-19 24 -28
43 -22 47 19 12 10 23 -52 70 l-63 46 -3 -33 c-7 -68 7 -113 53 -167 62 -73
64 -85 19 -171 -36 -68 -38 -77 -40 -173 -1 -68 -7 -114 -18 -139 -43 -99 -50
-250 -15 -342 33 -89 108 -147 190 -146 47 1 158 48 230 98 154 107 238 209
263 320 16 71 21 77 111 135 71 45 98 99 98 191 0 99 -31 176 -98 244 -43 43
-58 52 -88 52 -98 0 -182 -185 -113 -249 19 -18 43 -25 105 -32 92 -10 119
-19 144 -47 18 -20 17 -21 -16 -46 -32 -25 -106 -56 -132 -56 -7 0 -18 13 -24
28 -17 42 -78 100 -111 107 -84 19 -185 -116 -165 -221 12 -68 74 -88 199 -63
31 7 59 9 62 6 33 -33 -189 -246 -324 -309 -184 -87 -317 -11 -317 182 0 70
14 138 33 168 5 7 36 17 69 23 109 19 153 63 172 173 13 73 2 121 -40 183
l-29 42 50 77 c54 83 74 133 68 178 -3 26 -7 21 -43 -49z m429 -226 c37 -29
33 -39 -16 -39 -58 0 -74 11 -59 39 15 27 41 27 75 0z m-486 -142 l25 -38 -24
-25 c-29 -31 -53 -45 -97 -55 -48 -11 -62 -2 -62 36 0 43 15 81 46 123 l25 32
31 -17 c17 -10 42 -35 56 -56z m316 -158 c34 -27 33 -36 -6 -41 -65 -10 -114
26 -70 51 26 16 47 13 76 -10z"/>
<path d="M2466 1397 c-26 -44 -37 -86 -30 -114 8 -30 28 -29 48 1 15 24 15 25
-7 28 -25 3 -25 33 0 81 20 40 12 43 -11 4z"/>
<path d="M335 1368 c3 -13 -1 -36 -9 -53 -21 -40 -20 -51 5 -76 l21 -21 -29
-30 c-15 -16 -61 -55 -101 -85 -76 -57 -89 -77 -30 -47 49 25 109 76 143 123
19 26 38 41 52 41 40 0 73 18 73 40 0 48 -54 113 -103 125 -26 7 -28 6 -22
-17z m43 -75 c5 -17 -26 -29 -40 -15 -6 6 -7 15 -3 22 9 14 37 9 43 -7z m50 5
c19 -19 14 -28 -13 -28 -24 0 -34 18 -18 33 9 10 17 9 31 -5z"/>
<path d="M1266 1338 c-12 -47 -6 -186 13 -254 10 -38 41 -124 70 -191 28 -67
54 -142 57 -166 6 -44 5 -47 -27 -66 -76 -47 -135 -39 -195 24 -54 56 -71 108
-95 293 -18 143 -52 275 -83 331 l-13 24 -13 -23 c-25 -48 -23 -129 9 -278 50
-233 40 -327 -44 -401 -97 -85 -209 -80 -265 11 -37 62 -44 130 -25 247 35
213 37 231 31 255 -14 57 -78 -13 -124 -137 -12 -31 -40 -130 -62 -220 -22
-89 -50 -186 -61 -214 -18 -45 -25 -53 -48 -53 -36 0 -87 33 -110 71 -22 36
-38 117 -47 244 -3 49 -10 98 -14 110 -15 38 -23 -30 -17 -134 6 -104 34 -215
72 -291 50 -99 128 -129 179 -70 31 37 39 66 71 245 29 158 37 190 67 258 25
54 41 62 33 15 -17 -100 -25 -184 -25 -273 0 -84 4 -108 24 -151 73 -157 286
-143 358 22 14 33 33 80 42 107 10 26 21 47 24 47 4 0 16 -23 26 -52 29 -81
62 -124 119 -153 57 -28 78 -30 128 -14 51 17 96 66 120 128 33 88 23 191 -35
363 -51 151 -53 163 -30 176 14 8 14 13 -6 53 -29 57 -83 139 -91 139 -4 0 -9
-10 -13 -22z"/>
<path d="M3280 1238 c0 -8 7 -35 15 -58 8 -24 13 -45 10 -48 -11 -11 -45 32
-51 64 -9 51 -28 42 -20 -9 8 -49 0 -77 -20 -77 -18 0 -34 32 -35 72 -1 33 -1
33 -9 6 -8 -26 0 -84 14 -107 11 -17 31 -13 51 9 13 14 25 18 47 13 40 -8 47
6 33 72 -10 53 -35 98 -35 63z"/>
<path d="M881 951 c-10 -10 -22 -36 -25 -58 -8 -44 -26 -80 -26 -51 0 28 -49
78 -76 78 -48 0 -41 -64 7 -66 60 -3 59 -2 59 -43 0 -22 4 -42 9 -46 14 -8 27
20 40 86 9 44 17 59 36 67 14 7 25 18 25 26 0 23 -29 27 -49 7z"/>
<path d="M5602 804 c-7 -3 -17 -14 -22 -24 -9 -17 -7 -18 27 -13 l37 6 -27
-46 c-50 -86 -28 -121 62 -97 37 10 117 67 108 77 -2 2 -24 -8 -48 -22 -45
-25 -113 -33 -124 -14 -4 5 5 28 19 50 36 54 38 83 6 86 -14 1 -31 -1 -38 -3z"/>
<path d="M2483 747 c-52 -75 -68 -162 -37 -188 14 -11 20 -10 40 14 31 36 30
47 -1 47 -33 0 -33 28 0 99 30 63 29 73 -2 28z"/>
<path d="M3106 658 c-8 -13 -18 -36 -22 -53 -4 -16 -13 -39 -21 -51 -9 -14
-11 -29 -5 -45 l9 -23 11 21 c7 12 17 44 23 72 6 28 16 51 23 51 18 0 35 21
29 36 -8 21 -31 17 -47 -8z"/>
<path d="M2972 613 c2 -23 9 -29 33 -31 17 -2 36 -8 43 -14 21 -17 14 16 -9
46 -12 16 -30 26 -45 26 -22 0 -25 -4 -22 -27z"/>
<path d="M1785 590 c-15 -23 -28 -47 -31 -54 -7 -17 27 -45 73 -61 37 -13 38
-12 59 19 41 62 36 72 -63 130 -8 4 -22 -9 -38 -34z"/>
<path d="M5335 567 c-45 -77 -56 -138 -31 -172 13 -19 15 -18 46 15 l33 35
-29 5 c-39 7 -41 29 -10 97 32 69 27 80 -9 20z"/>
<path d="M3556 488 c-33 -57 -46 -93 -46 -128 0 -64 25 -78 59 -34 27 34 26
44 -1 41 -34 -3 -35 40 -3 103 32 64 26 78 -9 18z"/>
<path d="M1640 456 c-19 -8 -91 -40 -160 -73 -69 -32 -155 -72 -192 -87 -63
-27 -118 -69 -106 -82 14 -13 375 155 465 217 60 42 58 49 -7 25z"/>
<path d="M2570 416 c-52 -19 -142 -52 -200 -74 -58 -21 -122 -45 -143 -52 -42
-13 -71 -50 -39 -50 10 0 65 18 123 41 57 22 158 61 224 85 122 45 191 84 150
84 -11 0 -63 -16 -115 -34z"/>
</g>
</svg>
